<svg width="101" height="38" viewBox="0 0 101 38" fill="none" xmlns="http://www.w3.org/2000/svg">
<path d="M3.77801 25.0338C3.77801 25.2031 3.86915 25.3789 4.05145 25.5612C4.23374 25.7304 4.51368 25.8932 4.89129 26.0494C5.28191 26.2057 5.77671 26.3359 6.37566 26.4401C6.98764 26.5312 7.71681 26.5833 8.56316 26.5963C8.17254 26.388 7.7754 26.1731 7.37176 25.9518C6.98113 25.7174 6.60353 25.5091 6.23895 25.3268C5.87436 25.1315 5.54233 24.9752 5.24285 24.858C4.94337 24.7278 4.68947 24.6627 4.48113 24.6627C4.01238 24.6627 3.77801 24.7864 3.77801 25.0338ZM21.1413 3.29553C21.3366 2.90491 21.571 2.55986 21.8444 2.26038C22.1179 1.9609 22.4108 1.7135 22.7233 1.51819C23.0358 1.32288 23.3548 1.17965 23.6804 1.0885C24.0059 0.984334 24.3119 0.932251 24.5983 0.932251C25.015 0.932251 25.3665 1.04293 25.653 1.26428C25.9395 1.47262 26.0827 1.78512 26.0827 2.20178C26.0827 2.5273 25.9981 2.87887 25.8288 3.25647C25.0996 4.81897 24.3574 6.39449 23.6022 7.98303C22.847 9.55855 22.0853 11.1015 21.3171 12.6119C20.5619 14.1224 19.8197 15.5807 19.0905 16.9869C18.3613 18.3802 17.6582 19.6757 16.9811 20.8737C16.304 22.0716 15.666 23.1458 15.0671 24.0963C14.4811 25.0468 13.9473 25.8346 13.4655 26.4596C14.5983 26.3815 15.6335 26.2773 16.571 26.1471C17.5085 26.0169 18.4134 25.8671 19.2858 25.6979C20.1582 25.5286 21.0306 25.3463 21.903 25.151C22.7884 24.9427 23.7389 24.7343 24.7546 24.526C24.8197 24.5 24.8913 24.4804 24.9694 24.4674C25.0475 24.4544 25.1192 24.4479 25.1843 24.4479C25.5879 24.4479 25.9069 24.6106 26.1413 24.9362C26.3757 25.2487 26.4929 25.6067 26.4929 26.0104C26.4929 26.2578 26.2585 26.5247 25.7897 26.8112C25.321 27.0846 24.6764 27.358 23.8561 27.6315C23.0488 27.9049 22.0918 28.1718 20.985 28.4323C19.8913 28.6796 18.7064 28.901 17.4304 29.0963C16.1543 29.2786 14.8197 29.4218 13.4264 29.526C12.0332 29.6432 10.6465 29.7018 9.26629 29.7018C7.66473 29.7018 6.28452 29.5911 5.12566 29.3698C3.96681 29.1484 3.00978 28.8424 2.25457 28.4518C1.51238 28.0612 0.958997 27.5989 0.594414 27.0651C0.242851 26.5312 0.06707 25.9518 0.06707 25.3268C0.06707 24.7148 0.177747 24.2005 0.399101 23.7838C0.633476 23.3541 0.945976 23.0091 1.3366 22.7487C1.74025 22.4882 2.209 22.2994 2.74285 22.1823C3.28973 22.0651 3.87566 22.0065 4.50066 22.0065C5.00848 22.0065 5.53582 22.0976 6.0827 22.2799C6.62957 22.4622 7.16342 22.7031 7.68426 23.0026C8.21811 23.289 8.71941 23.6145 9.18816 23.9791C9.66993 24.3307 10.0866 24.6888 10.4382 25.0533C10.7376 24.2721 11.0957 23.3997 11.5124 22.4362C11.9421 21.4726 12.4043 20.4635 12.8991 19.4088C13.3939 18.3411 13.9147 17.2539 14.4616 16.1471C15.0085 15.0273 15.5554 13.927 16.1022 12.8463C16.6491 11.7656 17.183 10.7239 17.7038 9.72131C18.2246 8.71871 18.7064 7.80074 19.1491 6.96741C19.5918 6.13407 19.9824 5.3984 20.321 4.76038C20.6725 4.12236 20.946 3.63407 21.1413 3.29553ZM30.5944 12.2213C30.6074 11.9218 30.6725 11.6158 30.7897 11.3033C30.9199 10.9778 31.1022 10.6849 31.3366 10.4244C31.571 10.164 31.8574 9.94918 32.196 9.77991C32.5345 9.61064 32.9317 9.526 33.3874 9.526C34.1035 9.526 34.6048 9.66272 34.8913 9.93616C35.1908 10.1966 35.3405 10.5286 35.3405 10.9323C35.3405 11.1927 35.2884 11.4791 35.1843 11.7916C35.0931 12.0911 34.9434 12.3776 34.735 12.651C34.5397 12.9244 34.2793 13.1523 33.9538 13.3346C33.6283 13.5169 33.2376 13.608 32.7819 13.608C31.9746 13.608 31.4082 13.4843 31.0827 13.2369C30.7702 12.9765 30.6074 12.638 30.5944 12.2213ZM27.1569 26.6354C27.9382 25.9713 28.9343 25.2226 30.1452 24.3893C31.3692 23.5429 32.8535 22.5924 34.5983 21.5377C34.7936 21.4205 34.9824 21.3619 35.1647 21.3619C35.4512 21.3619 35.6856 21.4791 35.8679 21.7135C36.0632 21.9479 36.1608 22.2343 36.1608 22.5729C36.1608 22.9114 36.0306 23.2825 35.7702 23.6862C35.5098 24.0768 35.0736 24.4283 34.4616 24.7408L27.86 29.2721C27.5736 29.5325 27.3132 29.7539 27.0788 29.9362C26.8574 30.1315 26.6296 30.3138 26.3952 30.483C26.1738 30.6653 25.9395 30.8411 25.6921 31.0104C25.4577 31.1927 25.1908 31.388 24.8913 31.5963C24.2533 32.6901 23.6804 33.6145 23.1725 34.3698C22.6647 35.138 22.1634 35.7565 21.6686 36.2252C21.1738 36.707 20.666 37.0586 20.1452 37.2799C19.6244 37.5013 19.0319 37.6119 18.3679 37.6119C17.7559 37.6119 17.3327 37.4882 17.0983 37.2408C16.8509 37.0065 16.7272 36.6744 16.7272 36.2448C16.7272 35.8411 16.916 35.4309 17.2936 35.0143C17.6712 34.6106 18.1139 34.1875 18.6218 33.7448C19.1296 33.3151 19.6439 32.8528 20.1647 32.358C20.6725 31.8763 21.0632 31.3489 21.3366 30.776C21.6882 30.0468 22.0658 29.2656 22.4694 28.4323C22.86 27.5989 23.2572 26.7526 23.6608 25.8932C24.0645 25.0338 24.4681 24.1809 24.8718 23.3346C25.2884 22.4752 25.679 21.6614 26.0436 20.8932C26.4212 20.1119 26.7728 19.3893 27.0983 18.7252C27.4369 18.0612 27.7298 17.4948 27.9772 17.026C28.2376 16.5312 28.5697 16.1731 28.9733 15.9518C29.39 15.7174 29.7936 15.6002 30.1843 15.6002C30.6009 15.6002 30.959 15.7174 31.2585 15.9518C31.558 16.1862 31.7077 16.5182 31.7077 16.9479C31.7077 17.2343 31.6817 17.4948 31.6296 17.7291C31.5905 17.9635 31.5059 18.2304 31.3757 18.5299C31.2455 18.8164 31.0697 19.1679 30.8483 19.5846C30.64 19.9882 30.3665 20.5026 30.028 21.1276C29.6895 21.7526 29.2858 22.5143 28.8171 23.4127C28.3483 24.2981 27.7949 25.3724 27.1569 26.6354ZM55.1061 24.4479C54.5332 25.0989 53.8626 25.7369 53.0944 26.3619C52.3392 26.9739 51.558 27.5208 50.7507 28.0026C49.9434 28.4843 49.1491 28.8684 48.3679 29.1549C47.5866 29.4544 46.8835 29.6041 46.2585 29.6041C45.6335 29.6041 45.1257 29.4283 44.735 29.0768C44.3444 28.7252 44.1491 28.1263 44.1491 27.2799C44.1491 26.6809 44.2533 25.9843 44.4616 25.1901C44.1231 25.6979 43.6999 26.2122 43.1921 26.733C42.6843 27.2539 42.1048 27.7291 41.4538 28.1588C40.8027 28.5885 40.0736 28.9336 39.2663 29.194C38.459 29.4674 37.5801 29.6041 36.6296 29.6041C36.1999 29.6041 35.7832 29.5586 35.3796 29.4674C34.9889 29.3763 34.6439 29.22 34.3444 28.9987C34.0449 28.7773 33.804 28.4843 33.6218 28.1198C33.4395 27.7421 33.3483 27.2734 33.3483 26.7135C33.3483 26.7005 33.3744 26.5052 33.4264 26.1276C33.4785 25.7369 33.6413 25.1315 33.9147 24.3112C34.2012 23.4778 34.6374 22.4036 35.2233 21.0885C35.8093 19.7734 36.6361 18.1783 37.7038 16.3033C37.9772 15.8086 38.2897 15.457 38.6413 15.2487C39.0059 15.0273 39.3965 14.9166 39.8132 14.9166C39.9955 14.9166 40.1843 14.9427 40.3796 14.9948C40.5749 15.0338 40.7572 15.1054 40.9264 15.2096C41.0957 15.3007 41.2324 15.4244 41.3366 15.5807C41.4408 15.7239 41.4929 15.8932 41.4929 16.0885C41.4929 16.2187 41.4733 16.3424 41.4343 16.4596C41.3692 16.6809 41.2259 16.9739 41.0046 17.3385C40.7962 17.6901 40.5488 18.1002 40.2624 18.569C39.9759 19.0247 39.6699 19.5195 39.3444 20.0533C39.0319 20.5872 38.7389 21.1406 38.4655 21.7135C38.1921 22.2864 37.9577 22.8724 37.7624 23.4713C37.5671 24.0573 37.4564 24.6302 37.4304 25.1901C37.4304 25.4244 37.4955 25.6393 37.6257 25.8346C37.7559 26.0299 37.9707 26.1276 38.2702 26.1276C39.1165 26.1276 39.9238 25.8932 40.6921 25.4244C41.4603 24.9557 42.1699 24.3763 42.821 23.6862C43.472 22.983 44.058 22.2343 44.5788 21.4401C45.1126 20.6328 45.5554 19.8971 45.9069 19.233C46.1543 18.7903 46.3692 18.3151 46.5514 17.8073C46.7468 17.2994 46.9551 16.8307 47.1764 16.401C47.3978 15.9713 47.6517 15.6132 47.9382 15.3268C48.2246 15.0403 48.5827 14.8971 49.0124 14.8971C49.4811 14.8971 49.8522 15.0468 50.1257 15.3463C50.3991 15.6458 50.5358 16.0039 50.5358 16.4205C50.5358 16.6549 50.4447 16.9804 50.2624 17.3971C50.0931 17.8007 49.8718 18.2695 49.5983 18.8033C49.3379 19.3242 49.0514 19.8841 48.7389 20.483C48.4264 21.082 48.1335 21.694 47.86 22.319C47.5996 22.9309 47.3783 23.5364 47.196 24.1354C47.0267 24.7213 46.9421 25.2682 46.9421 25.776C46.9421 26.2448 47.2285 26.4791 47.8014 26.4791C48.2051 26.4791 48.7064 26.3619 49.3054 26.1276C49.9043 25.8932 50.5293 25.5677 51.1804 25.151C51.8444 24.7213 52.502 24.22 53.153 23.6471C53.8171 23.0742 54.403 22.4557 54.9108 21.7916L55.1061 24.4479ZM64.3249 25.151C64.3119 25.177 64.3054 25.2096 64.3054 25.2487C64.3054 25.2877 64.2988 25.3203 64.2858 25.3463C64.2858 25.5807 64.3444 25.8281 64.4616 26.0885C64.5788 26.3359 64.7676 26.4596 65.028 26.4596C65.1322 26.4596 65.2103 26.4466 65.2624 26.4205C66.0046 26.1992 66.7533 25.8476 67.5085 25.3658C68.2767 24.8841 69.0124 24.3567 69.7155 23.7838C70.4186 23.2109 71.0632 22.625 71.6491 22.026C72.2481 21.427 72.7429 20.8932 73.1335 20.4244C73.3158 20.2031 73.5176 20.0924 73.7389 20.0924C73.9343 20.0924 74.1035 20.1836 74.2468 20.3658C74.403 20.5481 74.4811 20.7955 74.4811 21.108C74.4811 21.3554 74.4095 21.6484 74.2663 21.9869C74.1361 22.3255 73.9147 22.6901 73.6022 23.0807C72.834 23.927 72.0462 24.7408 71.2389 25.5221C70.4317 26.3033 69.6179 27 68.7975 27.6119C67.9772 28.2109 67.1569 28.6927 66.3366 29.0573C65.5293 29.4218 64.735 29.6041 63.9538 29.6041C63.0033 29.6041 62.2546 29.3372 61.7077 28.8033C61.1608 28.2565 60.8874 27.4427 60.8874 26.3619C60.8874 26.2968 60.8874 26.2317 60.8874 26.1666C60.8874 26.0885 60.8939 26.0169 60.9069 25.9518C60.6074 26.4987 60.2233 27 59.7546 27.4557C59.2858 27.8984 58.7715 28.2825 58.2116 28.608C57.6517 28.9205 57.0723 29.1614 56.4733 29.3307C55.8744 29.513 55.2949 29.6041 54.735 29.6041C54.2533 29.6041 53.8106 29.539 53.4069 29.4088C53.0033 29.2786 52.6517 29.0703 52.3522 28.7838C52.0658 28.4974 51.8379 28.1328 51.6686 27.6901C51.5124 27.2474 51.4343 26.7135 51.4343 26.0885C51.4343 24.9948 51.6035 23.9596 51.9421 22.983C52.2806 21.9934 52.7298 21.0885 53.2897 20.2682C53.8496 19.4349 54.4876 18.6927 55.2038 18.0416C55.933 17.3776 56.6817 16.8177 57.4499 16.3619C58.2311 15.8932 59.0059 15.5351 59.7741 15.2877C60.5423 15.0403 61.2455 14.9166 61.8835 14.9166C62.6257 14.9166 63.2637 15.0403 63.7975 15.2877C64.058 15.4179 64.2988 15.5937 64.5202 15.8151C64.5723 15.6979 64.6244 15.5872 64.6764 15.483C64.8067 15.1705 64.9238 14.9036 65.028 14.6823C65.1322 14.4479 65.2038 14.2786 65.2429 14.1744C65.2819 14.0573 65.3926 13.7838 65.5749 13.3541C65.7572 12.9244 65.9655 12.4231 66.1999 11.8502C66.4473 11.2643 66.7077 10.6393 66.9811 9.97522C67.2676 9.31116 67.528 8.68616 67.7624 8.10022C67.9968 7.51428 68.1986 7.01298 68.3679 6.59631C68.5371 6.16663 68.6413 5.89319 68.6804 5.776C68.7715 5.45048 68.8952 5.13798 69.0514 4.8385C69.2077 4.526 69.39 4.25907 69.5983 4.03772C69.8197 3.80334 70.0736 3.62105 70.36 3.49084C70.6465 3.34762 70.972 3.276 71.3366 3.276C71.8314 3.276 72.2415 3.38668 72.5671 3.60803C72.8926 3.81637 73.0554 4.22652 73.0554 4.8385C73.0554 5.0859 73.0228 5.3398 72.9577 5.60022C72.8926 5.86064 72.8145 6.11454 72.7233 6.36194C72.6452 6.60933 72.554 6.85673 72.4499 7.10413C72.3587 7.3385 72.2741 7.55986 72.196 7.76819C71.5449 9.07027 70.8613 10.4895 70.1452 12.026C69.429 13.5494 68.7194 15.0859 68.0163 16.6354C67.3132 18.1849 66.6426 19.6953 66.0046 21.1666C65.3665 22.638 64.8067 23.9661 64.3249 25.151ZM63.7389 17.5143C62.9577 17.5403 62.1374 17.7096 61.278 18.0221C60.2884 18.3606 59.3835 18.8684 58.5632 19.5455C57.7429 20.2096 57.0462 21.0299 56.4733 22.0065C55.9134 22.983 55.5944 24.1028 55.5163 25.3658C55.5163 25.8867 55.7376 26.1471 56.1804 26.1471C56.7272 26.1471 57.2481 26.0364 57.7429 25.8151C58.2376 25.5807 58.7064 25.2747 59.1491 24.8971C59.6048 24.5065 60.028 24.0638 60.4186 23.569C60.8093 23.0742 61.1673 22.5599 61.4929 22.026C61.8314 21.4921 62.1309 20.9648 62.3913 20.444C62.6647 19.9101 62.8991 19.4153 63.0944 18.9596C63.1595 18.8164 63.2507 18.6145 63.3679 18.3541C63.472 18.1067 63.5957 17.8268 63.7389 17.5143ZM76.0436 12.2213C76.0436 11.9218 76.0957 11.6158 76.1999 11.3033C76.3171 10.9778 76.4863 10.6849 76.7077 10.4244C76.929 10.164 77.2025 9.94918 77.528 9.77991C77.8665 9.61064 78.2637 9.526 78.7194 9.526C79.4746 9.526 80.002 9.67574 80.3014 9.97522C80.6009 10.2617 80.7507 10.6263 80.7507 11.069C80.7507 11.3164 80.6986 11.5898 80.5944 11.8893C80.5033 12.1888 80.36 12.4687 80.1647 12.7291C79.9694 12.9765 79.7155 13.1849 79.403 13.3541C79.0905 13.5234 78.7194 13.608 78.2897 13.608C77.4824 13.608 76.916 13.4843 76.5905 13.2369C76.265 12.9765 76.0827 12.638 76.0436 12.2213ZM73.8952 16.6158C74.1165 16.2513 74.3705 15.9908 74.6569 15.8346C74.9434 15.6783 75.2363 15.6002 75.5358 15.6002C76.0306 15.6002 76.4538 15.763 76.8054 16.0885C77.1699 16.401 77.3522 16.8046 77.3522 17.2994C77.3392 17.4166 77.3197 17.5338 77.2936 17.651C77.2806 17.7682 77.2415 17.8854 77.1764 18.0026C76.9942 18.3411 76.8444 18.6276 76.7272 18.8619C76.61 19.0963 76.4994 19.3177 76.3952 19.526C76.304 19.7213 76.2129 19.9166 76.1218 20.1119C76.0306 20.3073 75.9199 20.5416 75.7897 20.8151C75.6335 21.1406 75.4577 21.4987 75.2624 21.8893C75.0671 22.2669 74.8783 22.6575 74.696 23.0612C74.5267 23.4648 74.377 23.8619 74.2468 24.2526C74.1296 24.6432 74.071 25.0013 74.071 25.3268C74.071 25.6783 74.1556 25.9127 74.3249 26.0299C74.5072 26.1341 74.7611 26.1862 75.0866 26.1862C75.4512 26.1862 75.8288 26.108 76.2194 25.9518C76.6231 25.7955 77.0267 25.5937 77.4304 25.3463C77.834 25.0989 78.2311 24.819 78.6218 24.5065C79.0124 24.1809 79.377 23.8554 79.7155 23.5299C80.0671 23.2044 80.3861 22.8919 80.6725 22.5924C80.972 22.2929 81.2194 22.026 81.4147 21.7916C81.6751 21.5442 81.9356 21.4205 82.196 21.4205C82.4304 21.4205 82.6192 21.5247 82.7624 21.733C82.9186 21.9414 82.9968 22.2083 82.9968 22.5338C82.9968 22.8333 82.9186 23.1523 82.7624 23.4908C82.6192 23.8294 82.3783 24.1484 82.0397 24.4479C81.3757 25.125 80.6986 25.776 80.0085 26.401C79.3184 27.013 78.6087 27.5599 77.8796 28.0416C77.1634 28.5104 76.4408 28.888 75.7116 29.1744C74.9824 29.4609 74.2468 29.6041 73.5046 29.6041C72.4499 29.6041 71.6165 29.3372 71.0046 28.8033C70.4056 28.2565 70.1061 27.4101 70.1061 26.2643C70.1061 25.6653 70.1908 25.0794 70.36 24.5065C70.5293 23.9336 70.7311 23.3802 70.9655 22.8463C71.1999 22.2994 71.4473 21.7786 71.7077 21.2838C71.9681 20.776 72.1895 20.2942 72.3718 19.8385C72.4369 19.6692 72.5475 19.4088 72.7038 19.0573C72.8731 18.7057 73.0488 18.3476 73.2311 17.983C73.4395 17.5533 73.6608 17.0976 73.8952 16.6158ZM88.1921 18.3541C87.5801 18.3541 86.9876 18.5104 86.4147 18.8229C85.8548 19.1224 85.3535 19.526 84.9108 20.0338C84.4811 20.5286 84.1361 21.095 83.8757 21.733C83.6152 22.358 83.485 23.0026 83.485 23.6666C83.485 23.914 83.5046 24.1875 83.5436 24.4869C83.5827 24.7734 83.6608 25.0468 83.778 25.3073C83.9082 25.5546 84.0905 25.763 84.3249 25.9323C84.5593 26.1015 84.8718 26.1862 85.2624 26.1862C85.8613 26.1862 86.4408 26.0299 87.0007 25.7174C87.5736 25.3919 88.0814 24.9752 88.5241 24.4674C88.9668 23.9466 89.3184 23.3606 89.5788 22.7096C89.8392 22.0586 89.9694 21.401 89.9694 20.7369C89.9694 20.4765 89.9499 20.2096 89.9108 19.9362C89.8848 19.6497 89.8067 19.3893 89.6764 19.1549C89.5593 18.9205 89.3835 18.7317 89.1491 18.5885C88.9147 18.4323 88.5957 18.3541 88.1921 18.3541ZM89.2077 14.9166C89.7025 14.9166 90.2298 14.9817 90.7897 15.1119C91.3626 15.2421 91.89 15.4635 92.3718 15.776C92.8535 16.0885 93.2507 16.5052 93.5632 17.026C93.8887 17.5338 94.0514 18.1653 94.0514 18.9205C94.0514 19.3112 93.9994 19.7604 93.8952 20.2682C93.791 20.763 93.6348 21.2838 93.4264 21.8307C93.5567 21.9869 93.7064 22.0976 93.8757 22.1627C94.0449 22.2278 94.2272 22.2604 94.4225 22.2604C94.696 22.2604 94.9955 22.1823 95.321 22.026C95.6595 21.8698 96.0046 21.6679 96.3561 21.4205C96.7077 21.1731 97.0593 20.8932 97.4108 20.5807C97.7624 20.2682 98.0944 19.9557 98.4069 19.6432C98.7194 19.3307 98.9994 19.0377 99.2468 18.7643C99.5072 18.4778 99.722 18.2369 99.8913 18.0416C99.9824 17.9505 100.093 17.9049 100.223 17.9049C100.406 17.9049 100.568 18.0026 100.712 18.1979C100.855 18.3802 100.926 18.6406 100.926 18.9791C100.926 19.3177 100.822 19.7083 100.614 20.151C100.419 20.5937 100.048 21.0559 99.5007 21.5377C99.1882 21.8763 98.8301 22.2669 98.4264 22.7096C98.0228 23.1523 97.5931 23.569 97.1374 23.9596C96.6817 24.3502 96.2064 24.6823 95.7116 24.9557C95.2168 25.2291 94.722 25.3658 94.2272 25.3658C93.8887 25.3658 93.5567 25.3138 93.2311 25.2096C92.9186 25.1054 92.5996 24.9362 92.2741 24.7018C91.8054 25.4309 91.2715 26.095 90.6725 26.694C90.0736 27.2929 89.403 27.8073 88.6608 28.2369C87.9317 28.6666 87.1374 28.9987 86.278 29.233C85.4317 29.4804 84.5267 29.6041 83.5632 29.6041C83.1986 29.6041 82.7754 29.5325 82.2936 29.3893C81.8119 29.2461 81.3496 29.0117 80.9069 28.6862C80.4772 28.3476 80.1126 27.9114 79.8132 27.3776C79.5137 26.8437 79.3639 26.1927 79.3639 25.4244C79.3639 24.9036 79.4486 24.2786 79.6179 23.5494C79.7871 22.8203 80.041 22.0716 80.3796 21.3033C80.7311 20.5221 81.1673 19.7539 81.6882 18.9987C82.222 18.2304 82.8535 17.5468 83.5827 16.9479C84.3119 16.3359 85.1452 15.8476 86.0827 15.483C87.0202 15.1054 88.0619 14.9166 89.2077 14.9166Z" fill="white"/>
</svg>
